<mxfile host="app.diagrams.net" modified="2024-05-23T04:38:54.313Z" agent="Mozilla/5.0 (Windows NT 10.0; Win64; x64) AppleWebKit/537.36 (KHTML, like Gecko) Chrome/124.0.0.0 Safari/537.36" etag="JHfHCflJ5OPVOy9Bvnxh" version="24.4.6" type="device">
  <diagram name="Page-1" id="8vs2Xn5anrS_nT1-QFy3">
    <mxGraphModel dx="794" dy="1600" grid="1" gridSize="10" guides="1" tooltips="1" connect="1" arrows="1" fold="1" page="1" pageScale="1" pageWidth="850" pageHeight="1100" math="0" shadow="0">
      <root>
        <mxCell id="0" />
        <mxCell id="1" parent="0" />
        <mxCell id="JS9NR-PpkP2RX6gFzaYu-1" value="START" style="ellipse;whiteSpace=wrap;html=1;aspect=fixed;" vertex="1" parent="1">
          <mxGeometry x="380" y="-490" width="80" height="80" as="geometry" />
        </mxCell>
        <mxCell id="JS9NR-PpkP2RX6gFzaYu-2" value="" style="endArrow=classic;html=1;rounded=0;exitX=0.5;exitY=1;exitDx=0;exitDy=0;" edge="1" parent="1" source="JS9NR-PpkP2RX6gFzaYu-1">
          <mxGeometry width="50" height="50" relative="1" as="geometry">
            <mxPoint x="380" y="-210" as="sourcePoint" />
            <mxPoint x="420" y="-360" as="targetPoint" />
          </mxGeometry>
        </mxCell>
        <mxCell id="JS9NR-PpkP2RX6gFzaYu-4" value="SELECT CATEGORY" style="rounded=1;whiteSpace=wrap;html=1;" vertex="1" parent="1">
          <mxGeometry x="360" y="-360" width="120" height="60" as="geometry" />
        </mxCell>
        <mxCell id="JS9NR-PpkP2RX6gFzaYu-5" value="" style="endArrow=classic;html=1;rounded=0;exitX=0.5;exitY=1;exitDx=0;exitDy=0;" edge="1" parent="1" source="JS9NR-PpkP2RX6gFzaYu-4">
          <mxGeometry width="50" height="50" relative="1" as="geometry">
            <mxPoint x="420" y="-290" as="sourcePoint" />
            <mxPoint x="420" y="-240" as="targetPoint" />
          </mxGeometry>
        </mxCell>
        <mxCell id="JS9NR-PpkP2RX6gFzaYu-6" value="SELECT PRODUCT" style="rounded=1;whiteSpace=wrap;html=1;" vertex="1" parent="1">
          <mxGeometry x="360" y="-240" width="120" height="60" as="geometry" />
        </mxCell>
        <mxCell id="JS9NR-PpkP2RX6gFzaYu-7" value="" style="endArrow=classic;html=1;rounded=0;exitX=0.5;exitY=1;exitDx=0;exitDy=0;" edge="1" parent="1" source="JS9NR-PpkP2RX6gFzaYu-6">
          <mxGeometry width="50" height="50" relative="1" as="geometry">
            <mxPoint x="380" y="-110" as="sourcePoint" />
            <mxPoint x="420" y="-120" as="targetPoint" />
          </mxGeometry>
        </mxCell>
        <mxCell id="JS9NR-PpkP2RX6gFzaYu-8" value="IN STOCK" style="rhombus;whiteSpace=wrap;html=1;" vertex="1" parent="1">
          <mxGeometry x="380" y="-120" width="80" height="80" as="geometry" />
        </mxCell>
        <mxCell id="JS9NR-PpkP2RX6gFzaYu-9" value="" style="endArrow=classic;html=1;rounded=0;exitX=0;exitY=0.5;exitDx=0;exitDy=0;" edge="1" parent="1" source="JS9NR-PpkP2RX6gFzaYu-8">
          <mxGeometry width="50" height="50" relative="1" as="geometry">
            <mxPoint x="380" y="-10" as="sourcePoint" />
            <mxPoint x="320" y="-80" as="targetPoint" />
          </mxGeometry>
        </mxCell>
        <mxCell id="JS9NR-PpkP2RX6gFzaYu-10" value="" style="endArrow=classic;html=1;rounded=0;exitX=1;exitY=0.5;exitDx=0;exitDy=0;" edge="1" parent="1" source="JS9NR-PpkP2RX6gFzaYu-8">
          <mxGeometry width="50" height="50" relative="1" as="geometry">
            <mxPoint x="380" y="-10" as="sourcePoint" />
            <mxPoint x="520" y="-80" as="targetPoint" />
          </mxGeometry>
        </mxCell>
        <mxCell id="JS9NR-PpkP2RX6gFzaYu-11" value="YES" style="text;html=1;align=center;verticalAlign=middle;resizable=0;points=[];autosize=1;strokeColor=none;fillColor=none;" vertex="1" parent="1">
          <mxGeometry x="465" y="-112" width="50" height="30" as="geometry" />
        </mxCell>
        <mxCell id="JS9NR-PpkP2RX6gFzaYu-12" value="NO" style="text;html=1;align=center;verticalAlign=middle;resizable=0;points=[];autosize=1;strokeColor=none;fillColor=none;" vertex="1" parent="1">
          <mxGeometry x="320" y="-112" width="40" height="30" as="geometry" />
        </mxCell>
        <mxCell id="JS9NR-PpkP2RX6gFzaYu-13" value="" style="endArrow=classic;html=1;rounded=0;exitX=0.075;exitY=1.133;exitDx=0;exitDy=0;exitPerimeter=0;" edge="1" parent="1" source="JS9NR-PpkP2RX6gFzaYu-12">
          <mxGeometry width="50" height="50" relative="1" as="geometry">
            <mxPoint x="380" y="-10" as="sourcePoint" />
            <mxPoint x="323" y="-10" as="targetPoint" />
          </mxGeometry>
        </mxCell>
        <mxCell id="JS9NR-PpkP2RX6gFzaYu-14" value="" style="endArrow=classic;html=1;rounded=0;exitX=0.075;exitY=1.133;exitDx=0;exitDy=0;exitPerimeter=0;" edge="1" parent="1">
          <mxGeometry width="50" height="50" relative="1" as="geometry">
            <mxPoint x="520" y="-80" as="sourcePoint" />
            <mxPoint x="520" y="-12" as="targetPoint" />
          </mxGeometry>
        </mxCell>
        <mxCell id="JS9NR-PpkP2RX6gFzaYu-15" value="NOT IN STOCK PLEASE TRY LATER" style="rounded=0;whiteSpace=wrap;html=1;" vertex="1" parent="1">
          <mxGeometry x="260" y="-10" width="120" height="60" as="geometry" />
        </mxCell>
        <mxCell id="JS9NR-PpkP2RX6gFzaYu-16" value="ENTER DELEVARY ADDRESS" style="rounded=1;whiteSpace=wrap;html=1;" vertex="1" parent="1">
          <mxGeometry x="460" y="-10" width="120" height="60" as="geometry" />
        </mxCell>
        <mxCell id="JS9NR-PpkP2RX6gFzaYu-17" value="" style="endArrow=classic;html=1;rounded=0;exitX=0.5;exitY=1;exitDx=0;exitDy=0;" edge="1" parent="1" source="JS9NR-PpkP2RX6gFzaYu-16">
          <mxGeometry width="50" height="50" relative="1" as="geometry">
            <mxPoint x="380" y="90" as="sourcePoint" />
            <mxPoint x="520" y="110" as="targetPoint" />
          </mxGeometry>
        </mxCell>
        <mxCell id="JS9NR-PpkP2RX6gFzaYu-18" value="PAYMENT (COD)" style="rounded=1;whiteSpace=wrap;html=1;" vertex="1" parent="1">
          <mxGeometry x="460" y="110" width="120" height="60" as="geometry" />
        </mxCell>
        <mxCell id="JS9NR-PpkP2RX6gFzaYu-19" value="" style="endArrow=classic;html=1;rounded=0;exitX=0.5;exitY=1;exitDx=0;exitDy=0;" edge="1" parent="1" source="JS9NR-PpkP2RX6gFzaYu-18">
          <mxGeometry width="50" height="50" relative="1" as="geometry">
            <mxPoint x="380" y="90" as="sourcePoint" />
            <mxPoint x="520" y="230" as="targetPoint" />
          </mxGeometry>
        </mxCell>
        <mxCell id="JS9NR-PpkP2RX6gFzaYu-20" value="ORDER PLACED SUCCESSFULLY" style="rounded=0;whiteSpace=wrap;html=1;" vertex="1" parent="1">
          <mxGeometry x="460" y="230" width="120" height="60" as="geometry" />
        </mxCell>
        <mxCell id="JS9NR-PpkP2RX6gFzaYu-21" value="END" style="ellipse;whiteSpace=wrap;html=1;aspect=fixed;" vertex="1" parent="1">
          <mxGeometry x="330" y="230" width="80" height="80" as="geometry" />
        </mxCell>
        <mxCell id="JS9NR-PpkP2RX6gFzaYu-22" value="" style="endArrow=classic;html=1;rounded=0;exitX=0.5;exitY=1;exitDx=0;exitDy=0;entryX=0.5;entryY=0;entryDx=0;entryDy=0;" edge="1" parent="1" source="JS9NR-PpkP2RX6gFzaYu-15" target="JS9NR-PpkP2RX6gFzaYu-21">
          <mxGeometry width="50" height="50" relative="1" as="geometry">
            <mxPoint x="380" y="190" as="sourcePoint" />
            <mxPoint x="320" y="170" as="targetPoint" />
            <Array as="points">
              <mxPoint x="320" y="150" />
              <mxPoint x="370" y="150" />
            </Array>
          </mxGeometry>
        </mxCell>
        <mxCell id="JS9NR-PpkP2RX6gFzaYu-23" value="" style="endArrow=classic;html=1;rounded=0;exitX=0;exitY=0.5;exitDx=0;exitDy=0;entryX=0.988;entryY=0.4;entryDx=0;entryDy=0;entryPerimeter=0;" edge="1" parent="1" source="JS9NR-PpkP2RX6gFzaYu-20" target="JS9NR-PpkP2RX6gFzaYu-21">
          <mxGeometry width="50" height="50" relative="1" as="geometry">
            <mxPoint x="380" y="190" as="sourcePoint" />
            <mxPoint x="430" y="140" as="targetPoint" />
          </mxGeometry>
        </mxCell>
      </root>
    </mxGraphModel>
  </diagram>
</mxfile>
